<svg xmlns="http://www.w3.org/2000/svg" width="45" height="58" viewBox="0 0 45 58">
  <path fill="#ffc000" d="M44 30.2c-1.1-.7-2.6-.4-3.4.7-1 1.5-2.2 2.9-3.5 4.1-1.3 1.2-2.8 2.2-4.4 3-1.6.8-3.2 1.4-4.9 1.7-1.7.4-3.4.5-5.1.4-1.7-.1-3.4-.4-5-1-1.6-.5-3.1-1.3-4.5-2.2-1.4-.9-2.6-2-3.7-3.2-1.1-1.2-2-2.5-2.7-4-.7-1.4-1.2-2.9-1.5-4.5-.3-1.5-.4-3.1-.3-4.6s.4-3 .9-4.5c.5-1.4 1.1-2.8 2-4 .8-1.2 1.8-2.3 2.9-3.3 1.1-.9 2.3-1.7 3.6-2.4 1.3-.6 2.6-1.1 4-1.3 1.3-.3 2.7-.3 4.1-.3 1.3.1 2.7.4 3.9.8 1.2.4 2.4 1 3.5 1.8 1.1.7 2 1.6 2.9 2.6.8 1 1.5 2 2.1 3.1.5 1.1.9 2.3 1.1 3.5.2 1.2.3 2.4.2 3.6-.1 1.2-.3 2.3-.7 3.4-.4 1.1-.9 2.1-1.6 3-.6.9-1.4 1.7-2.2 2.5-.8.7-1.7 1.3-2.7 1.7-1 .4-2 .8-3 .9-1 .2-2 .2-3.1.1-1-.1-2-.3-2.9-.7-1.1 0-1.9-.4-2.7-1-.8-.5-1.5-1.2-2.1-1.9s-1.1-1.5-1.4-2.3c-.4-.8-.6-1.6-.8-2.5-.1-.8-.2-1.7-.1-2.5s.3-1.6.6-2.4c.3-.7.7-1.4 1.1-2.1.5-.6 1-1.2 1.6-1.6.6-.5 1.2-.8 1.9-1.1.6-.3 1.3-.5 2-.6.7-.1 1.3-.1 2 0 .6.1 1.3.3 1.9.5.6.2 1.1.5 1.6.9s.9.8 1.2 1.3c.3.4.6.9.8 1.5.2.5.3 1 .4 1.5s0 1 0 1.5c-.1.5-.2.9-.4 1.4-.2.4-.4.8-.7 1.1-.3.3-.6.6-.9.8-.3.2-.7.4-1 .5s-.7.2-1 .2-.7 0-1-.1-.6-.2-.8-.3c-.2-.1-.5-.3-.7-.5s-.3-.4-.4-.6-.2-.3-.2-.5c.6.6 1.4.8 2.2.6.3-.1.7-.2 1-.4.4-.3.8-.6 1.1-1.1.3-.4.4-.9.5-1.4 0-.5 0-1-.1-1.4-.1-.5-.4-.9-.7-1.3-.3-.4-.7-.7-1.1-.9-.4-.3-.9-.4-1.3-.6-.5-.1-1-.1-1.5-.1s-1 .2-1.5.4-1 .5-1.4.8c-.4.4-.8.8-1.1 1.2-.3.5-.6 1-.8 1.6s-.3 1.2-.3 1.8c0 .6.1 1.3.2 1.9.2.6.4 1.3.8 1.8.4.6.8 1.1 1.3 1.6s1.1.9 1.7 1.2c.7.3 1.4.6 2.1.7.8.2 1.5.2 2.3.2.8-.1 1.6-.2 2.3-.5.8-.3 1.5-.7 2.2-1.1.7-.5 1.3-1.1 1.9-1.7.6-.7 1-1.4 1.4-2.2.4-.8.6-1.7.8-2.6.2-.8.2-1.7.1-2.7-.1-1-.3-1.9-.7-2.8-.4-.9-.9-1.8-1.5-2.6s-1.3-1.6-2.1-2.2c-.8-.6-1.7-1.2-2.7-1.6-1-.4-2-.7-3.1-.8-1.1-.1-2.2-.1-3.3 0-1.1.2-2.2.5-3.3.9-1.1.5-2.1 1.1-3 1.8-.9.7-1.8 1.6-2.5 2.6S9.5 15.5 9 16.6c-.4 1.2-.7 2.5-.9 3.7-.1 1.3-.1 2.6.1 3.8.2 1.3.6 2.6 1.1 3.7.6 1.2 1.3 2.4 2.1 3.4.9 1.1 1.9 2 3 2.8 1.1.8 2.4 1.5 3.7 1.9 1.3.5 2.7.8 4.2.9 1.4.1 2.9.1 4.3-.2 1.5-.3 2.9-.7 4.2-1.3 1.4-.6 2.6-1.5 3.8-2.4 1.2-1 2.2-2.1 3.1-3.4.9-1.3 1.6-2.7 2.1-4.2s.9-3.1 1-4.7 0-3.3-.3-4.9-.8-3.2-1.5-4.7-1.7-2.9-2.8-4.2-2.4-2.4-3.8-3.4-3-1.8-4.7-2.3C26 .5 24.3.2 22.5 0c-1.8-.1-3.6 0-5.4.3-1.8.4-3.5.9-5.2 1.7-1.4 1-3 2.1-4.4 3.3C5.9 6.6 4.6 8 3.6 9.5c-1.1 1.6-1.9 3.3-2.5 5.1-.6 1.8-1 3.8-1.1 5.7-.1 2 0 4 .4 5.9.4 2 1.1 3.9 1.9 5.7.9 1.8 2.1 3.5 3.4 5 1.4 1.5 2.9 2.9 4.7 4 1.7 1.2 3.6 2.1 5.6 2.7 1.6.5 3.2.9 4.8 1.1v10.8c0 1.3 1 2.5 2.4 2.5 1.3 0 2.5-1 2.5-2.4V44.9c1-.1 2-.2 2.9-.4 2.1-.4 4.2-1.2 6.1-2.2 2-1 3.8-2.2 5.4-3.7 1.7-1.5 3.1-3.2 4.3-5.1 1-1.1.7-2.6-.4-3.3z"/>
</svg>
